Coordinates
version=1
nRows=13
nColumns=22
inDegrees=yes

Units are S.I. units (second, meters, Newtons, ...)
If the header above contains a line with 'inDegrees', this indicates whether rotational values are in degrees (yes) or radians (no).

endheader
time	pelvis_tilt	pelvis_list	pelvis_rotation	pelvis_tx	pelvis_ty	pelvis_tz	hip_flexion_r	hip_adduction_r	hip_rotation_r	knee_angle_r	ankle_angle_r	subtalar_angle_r	hip_flexion_l	hip_adduction_l	hip_rotation_l	knee_angle_l	ankle_angle_l	subtalar_angle_l	lumbar_extension	lumbar_bending	lumbar_rotation
      1.88000000	     -1.52599061	      0.50952266	     34.87625571	      0.66962544	      1.06438363	      0.85692868	     25.82572170	     -2.05254134	     12.94120300	    -39.79806735	     10.60276507	      2.44401196	     -0.63170456	     11.65404763	      8.87428328	    -12.74108746	     12.68124822	    -13.43152436	     -5.61830123	     -3.31495875	     -8.97122775
      1.89000000	     -1.40823137	      0.23264807	     35.84542587	      0.67509961	      1.06368175	      0.85058849	     26.22565401	     -1.76345865	     12.54630656	    -37.95205522	     10.50725921	      2.70703291	     -1.03693664	     11.40186697	      9.89539999	    -12.97549036	     13.06237771	    -13.55240178	     -5.60955504	     -3.02699406	     -9.22136980
      1.90000000	     -1.27318329	     -0.03082151	     36.81449118	      0.68060726	      1.06291113	      0.84416400	     26.54122544	     -1.48871367	     12.07603952	    -36.02352225	     10.41696502	      3.04366694	     -1.44884398	     11.14386312	     10.91150307	    -13.23352904	     13.45825916	    -13.67543704	     -5.61131169	     -2.74056854	     -9.46648947
      1.91000000	     -1.08357355	     -0.24534707	     37.76583731	      0.68618543	      1.06215476	      0.83766295	     26.71346044	     -1.22168278	     11.56076675	    -34.01077136	     10.35224494	      3.54655546	     -1.94014041	     10.88194457	     11.92180682	    -13.48156919	     13.84018612	    -13.82056949	     -5.68162319	     -2.46479906	     -9.68825939
      1.92000000	     -0.91220563	     -0.49321393	     38.70157125	      0.69179031	      1.06122899	      0.83112183	     26.86688441	     -0.93513098	     10.99032957	    -31.92956880	     10.26215897	      4.00221291	     -2.35436253	     10.59607169	     12.87147783	    -13.79276676	     14.26751553	    -13.90882884	     -5.69830200	     -2.17467685	     -9.86617393
      1.93000000	     -0.72108194	     -0.73383407	     39.61509706	      0.69746178	      1.06022922	      0.82452199	     26.93466232	     -0.63035735	     10.40206032	    -29.77907528	     10.17840631	      4.51290991	     -2.77868758	     10.29261770	     13.77701183	    -14.11516948	     14.70707188	    -13.97285646	     -5.72208092	     -1.88084185	    -10.00932599
      1.94000000	     -0.51277371	     -0.96903013	     40.50876055	      0.70320380	      1.05915188	      0.81786003	     26.91793792	     -0.30270063	      9.82363177	    -27.56718566	     10.10334882	      5.09358081	     -3.21383539	      9.96952887	     14.63357360	    -14.44183250	     15.15612292	    -14.01207808	     -5.74881369	     -1.58284818	    -10.12251258
      1.95000000	     -0.29048576	     -1.20150385	     41.38312316	      0.70901973	      1.05799266	      0.81113543	     26.82207774	      0.05132350	      9.28357852	    -25.30735578	     10.03491938	      5.75787921	     -3.65767363	      9.62548399	     15.43849140	    -14.76869307	     15.61249042	    -14.02437195	     -5.77330806	     -1.28084168	    -10.20604452
      1.96000000	     -0.05782497	     -1.42911853	     42.23989996	      0.71490434	      1.05675225	      0.80433224	     26.65040414	      0.42700864	      8.80847593	    -23.01755461	      9.97346924	      6.51646789	     -4.11236869	      9.26449072	     16.18659104	    -15.08946589	     16.07187192	    -14.00743660	     -5.79444160	     -0.97706258	    -10.26980013
      1.97000000	      0.17963961	     -1.65335194	     43.08582380	      0.72085145	      1.05542763	      0.79743912	     26.41650327	      0.81851704	      8.41713840	    -20.73057100	      9.92315995	      7.35084707	     -4.57319919	      8.88890027	     16.88314552	    -15.40268542	     16.52952443	    -13.96071032	     -5.80611960	     -0.67515784	    -10.31454032
      1.98000000	      0.41475092	     -1.86984289	     43.91678833	      0.72685412	      1.05401623	      0.79044108	     26.13196058	      1.21467780	      8.12420964	    -18.48115483	      9.89176547	      8.22371760	     -5.03664137	      8.51020895	     17.52449447	    -15.71343519	     16.97848288	    -13.88756286	     -5.80460402	     -0.38167884	    -10.34847271
      1.99000000	      0.64904251	     -2.07317450	     44.73287838	      0.73291218	      1.05254089	      0.78331985	     25.80303660	      1.60966605	      7.94309474	    -16.31552107	      9.86741092	      9.12556993	     -5.50974491	      8.13080308	     18.09742001	    -16.01614119	     17.41068192	    -13.78895388	     -5.79592549	     -0.09815035	    -10.36903979
      2.00000000	      0.87260561	     -2.26159719	     45.53608930	      0.73901662	      1.05100365	      0.77605241	     25.45290171	      1.98958529	      7.85330235	    -14.29057354	      9.86097107	      9.98606900	     -5.98274784	      7.76270567	     18.60783315	    -16.32102509	     17.81434688	    -13.67424394	     -5.77236030	      0.16736628	    -10.38358772
